<svg xmlns="http://www.w3.org/2000/svg" viewBox="0 0 204 36"><defs><style>.cls-1{fill:#2faae1;}</style></defs><title>logo-3</title><g id="Calque_2" data-name="Calque 2"><path class="cls-1" d="M13.38,0a4.34,4.34,0,0,0,.22,1,20.57,20.57,0,0,0,2.27,5.09c1.07,1.8,2.29,3.49,3.46,5.22a31.21,31.21,0,0,1,2.26,3.76,9,9,0,0,1,.82,2.48,7.53,7.53,0,0,1-.45,3.9,9.55,9.55,0,0,1-3,4.26,8.91,8.91,0,0,1-4.23,1.76,9.06,9.06,0,0,1-4-.21,8.87,8.87,0,0,1-4-2.5,9,9,0,0,1-2.5-5.21,7.37,7.37,0,0,1,.74-4.28,30.66,30.66,0,0,1,2.38-4c1.23-1.8,2.52-3.57,3.61-5.46A18.84,18.84,0,0,0,13.05,1c.06-.26.12-.53.17-.79A.46.46,0,0,1,13.3,0Zm1,8.07a1.9,1.9,0,0,0,0,.34,12.71,12.71,0,0,0,.45,2.29A26.84,26.84,0,0,0,16.56,15a28.47,28.47,0,0,1,1.51,3.39,6.32,6.32,0,0,1,.25,3.47,6.92,6.92,0,0,1-1.23,2.49c-.07.1-.13.2-.2.29a.1.1,0,0,0,.11,0c.23-.21.47-.41.71-.61a9,9,0,0,0,2.2-2.77A4.11,4.11,0,0,0,20.32,19a6,6,0,0,0-.79-2.21,30.56,30.56,0,0,0-2.15-3.14,19.26,19.26,0,0,1-2.94-5.42S14.43,8.12,14.35,8.1ZM7.46,16.3a.3.3,0,0,0,0,.08A10.6,10.6,0,0,0,7,19.92,5.78,5.78,0,0,0,10.52,25s.08.07.14,0A14.92,14.92,0,0,1,7.46,16.3Z"/><path class="cls-1" d="M24.08,27a.53.53,0,0,1,.1.06,8.35,8.35,0,0,1,2.05,2.45,2.81,2.81,0,0,1-.88,3.77,9.65,9.65,0,0,1-3.24,1.57,26.27,26.27,0,0,1-5.05.93,37.37,37.37,0,0,1-4.49.17,33.26,33.26,0,0,1-6.52-.76A15.75,15.75,0,0,1,2.4,34,5.16,5.16,0,0,1,.55,32.51,2.42,2.42,0,0,1,.19,30a5.87,5.87,0,0,1,1.58-2.23l.52-.45s.08-.1.18-.08a2,2,0,0,1-.29.35,6.72,6.72,0,0,0-.87,1.19,2.33,2.33,0,0,0,.47,3,6.88,6.88,0,0,0,2.5,1.44,21.72,21.72,0,0,0,4.58,1,34.84,34.84,0,0,0,5.59.26,26.69,26.69,0,0,0,7-1A10.35,10.35,0,0,0,24,32.45a4.64,4.64,0,0,0,.88-.71,2.36,2.36,0,0,0,.53-2.67,5.53,5.53,0,0,0-1.25-1.82c-.06-.06-.13-.1-.15-.19Z"/><path class="cls-1" d="M19.89,27.78a1.77,1.77,0,0,1,1,1.36,1.7,1.7,0,0,1-.74,1.73,6,6,0,0,1-2.27.94,19.71,19.71,0,0,1-4.72.48,18.71,18.71,0,0,1-4.94-.64,7.44,7.44,0,0,1-1.44-.57A2.66,2.66,0,0,1,6,30.42a1.27,1.27,0,0,1-.25-1.33A3,3,0,0,1,7,27.64c-.09.19-.29.3-.4.48a1.19,1.19,0,0,0,.26,1.82,5.48,5.48,0,0,0,2,.83,17.7,17.7,0,0,0,3.62.48,26.62,26.62,0,0,0,3.34-.09A11.63,11.63,0,0,0,19,30.43a3.36,3.36,0,0,0,.77-.41A1.25,1.25,0,0,0,20,28c-.05-.06-.13-.11-.11-.21Z"/><path class="cls-1" d="M24.05,27.06v0h0Z"/><path class="cls-1" d="M19.89,27.78h0Z"/><path d="M37.28,28.16V.73h8.08A12.65,12.65,0,0,1,51.8,2.35,11.16,11.16,0,0,1,56.15,7a14.61,14.61,0,0,1,1.54,6.82v1.38A14.57,14.57,0,0,1,56.14,22a10.92,10.92,0,0,1-4.42,4.56,13.2,13.2,0,0,1-6.56,1.6ZM42,4.58V24.32h3.1A7.15,7.15,0,0,0,50.88,22q2-2.34,2-6.72V13.73c0-3-.65-5.23-1.94-6.8a6.85,6.85,0,0,0-5.62-2.35Z"/><path d="M72.63,12a11.3,11.3,0,0,0-1.86-.15,4.2,4.2,0,0,0-4.23,2.41V28.16H62V7.78h4.36l.12,2.28A5.14,5.14,0,0,1,71,7.4a4.22,4.22,0,0,1,1.62.27Z"/><path d="M75.52,2.47A2.5,2.5,0,0,1,76.19.7,2.49,2.49,0,0,1,78.1,0,2.52,2.52,0,0,1,80,.7a2.42,2.42,0,0,1,.68,1.77A2.38,2.38,0,0,1,80,4.21a2.56,2.56,0,0,1-1.91.69,2.53,2.53,0,0,1-1.91-.69A2.46,2.46,0,0,1,75.52,2.47Zm4.85,25.69H75.81V7.78h4.56Z"/><path d="M103.15,18.18A12.12,12.12,0,0,1,101,25.72a7.42,7.42,0,0,1-11.1.62V36H85.33V7.78h4.21l.19,2.07A6.7,6.7,0,0,1,95.2,7.4,6.92,6.92,0,0,1,101,10.18c1.41,1.85,2.12,4.43,2.12,7.72Zm-4.55-.4a8.52,8.52,0,0,0-1.21-4.84,4,4,0,0,0-3.47-1.79,4.18,4.18,0,0,0-4,2.32v9A4.25,4.25,0,0,0,94,24.89a3.93,3.93,0,0,0,3.41-1.77A9.36,9.36,0,0,0,98.6,17.78Z"/><path d="M107.45,28.16V.73h8.08A12.68,12.68,0,0,1,122,2.35,11.16,11.16,0,0,1,126.32,7a14.73,14.73,0,0,1,1.54,6.82v1.38A14.57,14.57,0,0,1,126.31,22a11,11,0,0,1-4.42,4.56,13.21,13.21,0,0,1-6.57,1.6ZM112.2,4.58V24.32h3.1A7.16,7.16,0,0,0,121.05,22q2-2.34,2-6.72V13.73c0-3-.64-5.23-1.93-6.8a6.85,6.85,0,0,0-5.62-2.35Z"/><path d="M142.8,12a11.3,11.3,0,0,0-1.86-.15c-2.1,0-3.51.81-4.23,2.41V28.16h-4.57V7.78h4.36l.11,2.28A5.16,5.16,0,0,1,141.2,7.4a4.22,4.22,0,0,1,1.62.27Z"/><path d="M144.15,17.78a12,12,0,0,1,1.18-5.39,8.63,8.63,0,0,1,3.33-3.7,9.36,9.36,0,0,1,4.92-1.29,8.86,8.86,0,0,1,6.68,2.66,10.43,10.43,0,0,1,2.77,7l0,1.07a12.19,12.19,0,0,1-1.15,5.39,8.61,8.61,0,0,1-3.31,3.67,9.38,9.38,0,0,1-5,1.3,8.84,8.84,0,0,1-6.89-2.87A11,11,0,0,1,144.15,18Zm4.57.4A8.27,8.27,0,0,0,150,23.11a4.24,4.24,0,0,0,3.61,1.78,4.19,4.19,0,0,0,3.6-1.81,9.09,9.09,0,0,0,1.29-5.3,8.11,8.11,0,0,0-1.33-4.89,4.46,4.46,0,0,0-7.15,0A8.88,8.88,0,0,0,148.72,18.18Z"/><path d="M184.72,18.18a12.12,12.12,0,0,1-2.14,7.54,7.44,7.44,0,0,1-11.11.62V36h-4.56V7.78h4.21l.18,2.07a6.72,6.72,0,0,1,5.47-2.45,6.94,6.94,0,0,1,5.84,2.78c1.41,1.85,2.11,4.43,2.11,7.72Zm-4.55-.4A8.52,8.52,0,0,0,179,12.94a3.94,3.94,0,0,0-3.47-1.79,4.2,4.2,0,0,0-4,2.32v9a4.25,4.25,0,0,0,4.06,2.38,3.93,3.93,0,0,0,3.41-1.77A9.36,9.36,0,0,0,180.17,17.78Z"/><path d="M193.18,24.51H204v3.65H187.5v-3l10.32-13.7H187.69V7.78h15.92v2.9Z"/></g></svg>